<?xml version="1.0" encoding="utf-8"?>
<!-- Generator: Adobe Illustrator 25.2.0, SVG Export Plug-In . SVG Version: 6.00 Build 0)  -->
<svg version="1.1" id="Layer_1" xmlns="http://www.w3.org/2000/svg" xmlns:xlink="http://www.w3.org/1999/xlink" x="0px" y="0px"
	 viewBox="0 0 20.5 19.3" style="enable-background:new 0 0 20.5 19.3;" xml:space="preserve">
<style type="text/css">
	.st0{fill:#B01116;}
</style>
<path class="st0" d="M19.7,11c0.1,1.6-0.6,3-1.9,4l0.8,1.5c0.2,0.4,0.3,1,0.1,1.4c-0.2,0.5-0.6,0.8-1.1,1l-0.8,0.2
	c-0.2,0.1-0.4,0.1-0.5,0.1c-0.5,0-1-0.2-1.3-0.6l-2.1-2.5c-0.9-0.2-1.7-0.5-2.4-1.1c-0.5,0.1-1,0.2-1.5,0.2c-0.9,0-1.8-0.3-2.5-0.8
	c-0.5,0.2-1.1,0.2-1.6,0.2c-0.8,0-1.6-0.1-2.3-0.4c-1.4-0.6-2.4-2-2.4-3.6c-0.1-0.7,0-1.4,0.4-2.1C0.1,7.8,0.1,6.9,0.3,6.2
	c0.4-1,1.1-1.7,1.9-2.2c0.6-1.7,2.2-2.8,4-2.7c1.6-1.5,4.1-1.7,5.8-0.4c0.4-0.1,0.9-0.2,1.3-0.2c1.4,0,2.6,0.6,3.5,1.6
	c2,0.5,3.5,2.4,3.6,4.5c0,1.1-0.2,2.2-0.9,3.1C19.7,10.3,19.7,10.7,19.7,11 M14.7,9.6c0.6,0.1,1,0.5,1,1.1c0,0.6-0.4,1-1,1h-0.6
	c-0.3,0.9-0.9,1.7-1.6,2.3c0.2,0.1,0.5,0.1,0.8,0.2c5.1-0.1,4.5-3.2,4.5-3.2c-0.1-1.4-1.3-2.5-2.7-2.5c-0.6,0-1-0.4-1-1s0.4-1,1-1
	c1.2,0,2.4,0.5,3.3,1.3c0-0.3,0.1-0.6,0.1-0.9c-0.1-1.2-0.6-2.3-2.9-2.5c-1.2-3-4.4-1.3-4.4-0.4l0,0c0,0.2,0.2,0.7,0.2,0.8
	c0.6,0,1,0.4,1,1c0,0.5-0.5,1-1,1l0,0c-0.5,0-1-0.2-1.4-0.6C9.6,6.4,9,6.6,8.4,6.7l0,0c-0.6,0-1-0.4-1.1-0.9c-0.1-0.6,0.3-1,0.9-1.1
	c0.2,0,0.9-0.1,0.9-0.8l0,0c0-0.7,0.2-1.3,0.7-1.8C9,1.9,8,2.2,7,3.4c-1.8-0.3-2.6,0-3.1,1.9C2.9,5.8,2.4,6.1,2.2,7.1
	C3.2,6.9,4.3,7,5.4,7.4C5.9,7.6,6.2,8.1,6,8.7C5.8,9.2,5.2,9.4,4.7,9.3C3.9,8.9,3.1,8.9,2.4,9.2C2.1,9.5,2.1,10,2.1,10.5
	c0,0.7,0.4,1.4,1,1.8c0.5,0.3,1.1,0.4,1.7,0.4c-0.2-0.3-0.3-0.5-0.4-0.8c-0.2-0.5,0.1-1.1,0.6-1.3c0.5-0.2,1.1,0.1,1.3,0.6
	c0.4,1.1,1.4,1.9,2.6,2.1c1.4-0.1,2.6-0.9,3.2-2.1C12.4,9.7,13.5,9.6,14.7,9.6 M16.7,17.1l-0.6-1.3L15.4,16l1,1.3L16.7,17.1
	 M12.1,8.5c0-0.5-0.4-1-0.9-1c-0.7,0-1.4,0.2-1.9,0.7c-0.6,0.6-0.9,1.4-0.8,2.2c0,0.6,0.4,1,1,1c0.6,0,1-0.4,1-1
	c0-0.3,0.1-0.5,0.2-0.8c0.1-0.1,0.3-0.2,0.4-0.2C11.6,9.4,12.1,9,12.1,8.5z"/>
</svg>
