<?xml version="1.0" encoding="utf-8"?>
<!-- Generator: Adobe Illustrator 25.2.0, SVG Export Plug-In . SVG Version: 6.00 Build 0)  -->
<svg version="1.1" id="Layer_1" xmlns="http://www.w3.org/2000/svg" xmlns:xlink="http://www.w3.org/1999/xlink" x="0px" y="0px"
	 viewBox="0 0 20.4 20" style="enable-background:new 0 0 20.4 20;" xml:space="preserve">
<style type="text/css">
	.st0{fill:#B01116;}
</style>
<path class="st0" d="M13.5,0C11,0,9,2,9,4.5S11,9,13.5,9c0.9,0,1.7-0.3,2.4-0.7l3.1,3.1l1.4-1.4l-3.1-3.1C17.7,6.2,18,5.4,18,4.5
	C18,2,16,0,13.5,0 M2,2C0.9,2,0,2.9,0,4v14c0,1.1,0.9,2,2,2h14c1.1,0,2-0.9,2-2v-5l-2-2v7H2V4h5c0.1-0.7,0.2-1.3,0.5-2H2 M13.5,2
	C14.9,2,16,3.1,16,4.5S14.9,7,13.5,7S11,5.9,11,4.5S12.1,2,13.5,2z"/>
</svg>
