<?xml version="1.0" encoding="utf-8"?>
<!-- Generator: Adobe Illustrator 25.2.0, SVG Export Plug-In . SVG Version: 6.00 Build 0)  -->
<svg version="1.1" id="Logo" xmlns="http://www.w3.org/2000/svg" xmlns:xlink="http://www.w3.org/1999/xlink" x="0px" y="0px"
	 viewBox="0 0 305 200" style="enable-background:new 0 0 305 200;" xml:space="preserve">
<style type="text/css">
	.st0{fill:#FFFFFF;}
</style>
<g id="Cps">
	<path class="st0" d="M231.8,55.2c0.2-7.2,3.4-10.1,13.8-10.1h57.3V24.8h-53.6c-25.4,0-39.6,10.9-39.6,31.4
		c0,40.1,73.2,31.9,73.2,53.1c0,7.2-3.9,11.1-13.8,11.1h-74.9c7.6-9.2,12.2-21.2,12.2-34.8c0-34.3-22.2-63.2-59.9-63.2
		C112.4,22.4,88,48,88,86.1v9.5H62.1c-20.1,0-39.9-13-39.9-37.7S42,20.3,62.1,20.3h16.4V0H58.2C31.2,0,0,20.8,0,57.9
		s31.2,57.9,58.2,57.9h29.7V200h21.3v-84.2h40.5V95.6h-40.5V90c0-31.9,16.9-47.3,37.2-47.3c22.7,0,38.7,16.6,38.7,40.3
		c0,20.3-11,33.5-28.4,37.4h-27.1v20.3H269c20.5,0,36-10.4,36-32.3C305,66.8,231.5,75.2,231.8,55.2"/>
	<path class="st0" d="M146.9,170.9c-1.1,0.5-3.4,1-6.3,1c-6.8,0-11.9-3.8-11.9-10.8c0-6.7,5.1-11.3,12.5-11.3c3,0,4.9,0.6,5.7,1
		l-0.8,2.3c-1.2-0.5-2.9-0.9-4.8-0.9c-5.6,0-9.4,3.2-9.4,8.8c0,5.2,3.4,8.6,9.2,8.6c1.9,0,3.8-0.4,5.1-0.9L146.9,170.9z"/>
	<path class="st0" d="M152,164.4c0.1,3.8,2.8,5.3,5.9,5.3c2.3,0,3.6-0.4,4.8-0.8l0.5,2c-1.1,0.4-3,1-5.7,1c-5.3,0-8.5-3.1-8.5-7.8
		s3.1-8.3,8.1-8.3c5.6,0,7.1,4.4,7.1,7.2c0,0.6-0.1,1-0.1,1.3L152,164.4L152,164.4z M161.2,162.4c0-1.8-0.8-4.5-4.3-4.5
		c-3.2,0-4.6,2.6-4.8,4.5H161.2z"/>
	<path class="st0" d="M168.1,160.3c0-1.6,0-2.9-0.1-4.2h2.8l0.2,2.5h0.1c0.9-1.5,2.8-2.9,5.7-2.9c2.4,0,6.1,1.3,6.1,6.6v9.2h-3.1
		v-8.9c0-2.5-1-4.6-4-4.6c-2.1,0-3.7,1.3-4.2,2.9c-0.1,0.4-0.2,0.8-0.2,1.3v9.2h-3.1L168.1,160.3L168.1,160.3z"/>
	<path class="st0" d="M191.5,151.8v4.4h4.5v2.1h-4.5v8.3c0,1.9,0.6,3,2.3,3c0.8,0,1.4-0.1,1.8-0.2l0.2,2.1c-0.6,0.2-1.6,0.4-2.8,0.4
		c-1.5,0-2.6-0.4-3.4-1.2c-0.9-0.8-1.2-2.2-1.2-4v-8.4h-2.7v-2.1h2.7v-3.7L191.5,151.8z"/>
	<path class="st0" d="M199.5,161c0-1.8,0-3.4-0.1-4.8h2.7l0.1,3h0.1c0.8-2.1,2.7-3.4,4.8-3.4c0.4,0,0.6,0,0.9,0.1v2.6
		c-0.3-0.1-0.6-0.1-1.1-0.1c-2.2,0-3.8,1.5-4.2,3.6c-0.1,0.4-0.1,0.8-0.1,1.3v8.2h-3.1L199.5,161L199.5,161z"/>
	<path class="st0" d="M226.4,163.8c0,5.7-4.4,8.2-8.6,8.2c-4.7,0-8.3-3.1-8.3-7.9c0-5.1,3.8-8.2,8.5-8.2
		C223,155.8,226.4,159,226.4,163.8 M212.7,163.9c0,3.4,2.2,5.9,5.2,5.9s5.2-2.5,5.2-6c0-2.6-1.5-5.9-5.2-5.9
		C214.3,157.9,212.7,161,212.7,163.9"/>
	<path class="st0" d="M130.1,178.3c1.5-0.2,3.5-0.4,6-0.4c3.1,0,5.3,0.6,6.7,1.8c1.3,1,2.1,2.6,2.1,4.5s-0.6,3.5-1.9,4.6
		c-1.6,1.6-4.3,2.4-7.3,2.4c-0.9,0-1.8,0-2.5-0.2v8.6h-3.1V178.3L130.1,178.3z M133.2,188.6c0.7,0.1,1.5,0.2,2.6,0.2
		c3.7,0,6-1.6,6-4.6c0-2.8-2.3-4.2-5.7-4.2c-1.4,0-2.4,0.1-2.9,0.2L133.2,188.6L133.2,188.6z"/>
	<path class="st0" d="M157.6,199.5l-0.3-1.9h-0.1c-1,1.2-2.8,2.3-5.3,2.3c-3.5,0-5.3-2.2-5.3-4.4c0-3.7,3.7-5.8,10.4-5.7v-0.3
		c0-1.3-0.4-3.6-3.9-3.6c-1.6,0-3.3,0.4-4.5,1.1l-0.7-1.9c1.4-0.8,3.5-1.4,5.7-1.4c5.3,0,6.6,3.2,6.6,6.3v5.8c0,1.3,0.1,2.6,0.3,3.7
		L157.6,199.5L157.6,199.5z M157.1,191.6c-3.4-0.1-7.3,0.5-7.3,3.5c0,1.8,1.3,2.7,3,2.7c2.3,0,3.7-1.3,4.2-2.6
		c0.1-0.3,0.2-0.6,0.2-0.9L157.1,191.6L157.1,191.6z"/>
	<path class="st0" d="M179.6,195.3c0,1.6,0,3,0.1,4.2H177l-0.2-2.5h-0.1c-0.8,1.2-2.6,2.9-5.7,2.9c-2.7,0-5.9-1.3-5.9-6.7v-9h3.1
		v8.5c0,2.9,1,4.9,3.9,4.9c2.1,0,3.6-1.3,4.1-2.5c0.2-0.4,0.3-0.9,0.3-1.4v-9.4h3.1L179.6,195.3L179.6,195.3z"/>
	<rect x="184.8" y="176.9" class="st0" width="3.1" height="22.6"/>
	<path class="st0" d="M202.7,199.5l-0.3-1.9h-0.1c-1,1.2-2.8,2.3-5.3,2.3c-3.5,0-5.3-2.2-5.3-4.4c0-3.7,3.7-5.8,10.4-5.7v-0.3
		c0-1.3-0.4-3.6-3.9-3.6c-1.6,0-3.3,0.4-4.5,1.1l-0.7-1.9c1.4-0.8,3.5-1.4,5.7-1.4c5.3,0,6.6,3.2,6.6,6.3v5.8c0,1.3,0.1,2.6,0.3,3.7
		L202.7,199.5L202.7,199.5z M202.3,191.6c-3.4-0.1-7.3,0.5-7.3,3.5c0,1.8,1.4,2.7,3,2.7c2.2,0,3.7-1.3,4.2-2.6
		c0.1-0.3,0.2-0.6,0.2-0.9L202.3,191.6L202.3,191.6z"/>
	<path class="st0" d="M217.6,196.1c1.4,0.8,3.4,1.4,5.5,1.4c3.2,0,5-1.5,5-3.6c0-2-1.3-3.1-4.5-4.3c-3.9-1.2-6.3-3.1-6.3-6.1
		c0-3.3,3.1-5.8,7.8-5.8c2.5,0,4.2,0.5,5.3,1.1l-0.9,2.3c-0.8-0.4-2.4-1-4.6-1c-3.3,0-4.5,1.8-4.5,3.2c0,2,1.5,3,4.8,4.1
		c4.1,1.4,6.1,3.1,6.1,6.3c0,3.3-2.7,6.2-8.4,6.2c-2.3,0-4.8-0.6-6.1-1.4L217.6,196.1z"/>
	<path class="st0" d="M251.3,191.7c0,5.7-4.4,8.2-8.6,8.2c-4.7,0-8.3-3.1-8.3-7.9c0-5.1,3.8-8.2,8.5-8.2
		C247.9,183.8,251.3,187,251.3,191.7 M237.6,191.8c0,3.4,2.2,5.9,5.2,5.9s5.2-2.5,5.2-6c0-2.6-1.5-5.9-5.2-5.9
		C239.2,185.9,237.6,188.9,237.6,191.8"/>
	<path class="st0" d="M269.7,195.3c0,1.6,0,3,0.2,4.2H267l-0.2-2.5h-0.1c-0.8,1.2-2.6,2.9-5.7,2.9c-2.7,0-5.9-1.3-5.9-6.7v-9h3.1
		v8.5c0,2.9,1,4.9,3.8,4.9c2.1,0,3.6-1.3,4.1-2.5c0.2-0.4,0.3-0.9,0.3-1.4v-9.4h3.1L269.7,195.3L269.7,195.3z"/>
	<path class="st0" d="M272.9,197.9l7.8-9.1c0.7-0.8,1.5-1.6,2.2-2.4v-0.1h-9.3V184h13.1v1.8l-7.7,8.9c-0.7,0.9-1.4,1.6-2.2,2.4v0.1
		h10.1v2.2h-14V197.9z"/>
	<path class="st0" d="M299.6,199.5l-0.2-1.9h-0.1c-1,1.2-2.8,2.3-5.3,2.3c-3.5,0-5.3-2.2-5.3-4.4c0-3.7,3.7-5.8,10.4-5.7v-0.3
		c0-1.3-0.4-3.6-3.9-3.6c-1.6,0-3.3,0.4-4.5,1.1l-0.7-1.9c1.4-0.8,3.5-1.4,5.7-1.4c5.3,0,6.5,3.2,6.5,6.3v5.8c0,1.3,0.1,2.6,0.3,3.7
		L299.6,199.5L299.6,199.5z M299.2,191.6c-3.4-0.1-7.3,0.5-7.3,3.5c0,1.8,1.4,2.7,3,2.7c2.2,0,3.7-1.3,4.2-2.6
		c0.1-0.3,0.2-0.6,0.2-0.9L299.2,191.6L299.2,191.6z"/>
</g>
</svg>
