<?xml version="1.0" encoding="utf-8"?>
<!-- Generator: Adobe Illustrator 25.2.0, SVG Export Plug-In . SVG Version: 6.00 Build 0)  -->
<svg version="1.1" id="Layer_1" xmlns="http://www.w3.org/2000/svg" xmlns:xlink="http://www.w3.org/1999/xlink" x="0px" y="0px"
	 viewBox="0 0 184.2 117" style="enable-background:new 0 0 184.2 117;" xml:space="preserve">
<style type="text/css">
	.st0{clip-path:url(#SVGID_2_);}
	.st1{fill:#FFFFFF;}
	.st2{fill:url(#path704_1_);}
	.st3{fill:url(#path738_1_);}
	.st4{fill:url(#path772_1_);}
	.st5{fill:url(#path806_1_);}
	.st6{fill:url(#path840_1_);}
	.st7{fill:url(#path874_1_);}
	.st8{fill:url(#path908_1_);}
	.st9{fill:url(#path942_1_);}
	.st10{fill:url(#path976_1_);}
	.st11{fill:url(#path1010_1_);}
	.st12{fill:url(#path1044_1_);}
	.st13{fill:url(#path1078_1_);}
	.st14{fill:url(#path1112_1_);}
	.st15{clip-path:url(#SVGID_4_);}
	.st16{fill:#ED1C24;}
	.st17{fill-rule:evenodd;clip-rule:evenodd;fill:#254AA5;}
	.st18{fill:#FCD205;}
</style>
<g id="Governo_SP" transform="matrix(1.3333333,0,0,-1.3333333,-120.89653,475.82399)">
	<g id="g632">
		<g>
			<defs>
				<rect id="SVGID_1_" x="67.7" y="254.5" width="184.2" height="117"/>
			</defs>
			<clipPath id="SVGID_2_">
				<use xlink:href="#SVGID_1_"  style="overflow:visible;"/>
			</clipPath>
			<g id="g634" class="st0">
				<g id="g640" transform="translate(610.5225,299.6336)">
					<path id="path642" class="st1" d="M-470.6,21.5l4.7,5.6c3-2.4,6.3-3.6,9.8-3.6c2.2,0,3.5,0.8,3.5,2.1v0.1c0,1.3-1,1.9-5.1,2.9
						c-6.4,1.5-11.4,3.3-11.4,9.5v0.1c0,5.6,4.4,9.7,11.7,9.7c5.1,0,9.1-1.4,12.4-4l-4.2-5.9c-2.8,1.9-5.8,3-8.5,3c-2,0-3-0.9-3-1.9
						v-0.1c0-1.4,1-2,5.2-2.9c6.9-1.5,11.3-3.8,11.3-9.4v-0.1c0-6.2-4.9-9.8-12.2-9.8C-461.8,16.5-466.9,18.2-470.6,21.5"/>
				</g>
				<g id="g644" transform="translate(682.7239,311.3895)">
					<path id="path646" class="st1" d="M-497.2,17.2l-3.4,8.6l-3.4-8.6H-497.2z M-509.7,38.7c0.9,4.3,2.5,6.4,5.4,6.4
						c2.6,0,5.7-1.7,7.1-1.7c1.2,0,1.7,0.6,2.2,2l3.9-1.1c-0.9-4.3-2.5-6.4-5.4-6.4c-2.6,0-5.7,1.7-7.1,1.7c-1.2,0-1.7-0.6-2.3-2
						L-509.7,38.7z M-504.5,35.7h8.1l12.9-30.4h-9l-2.2,5.4h-11.7l-2.2-5.4h-8.8L-504.5,35.7z"/>
				</g>
				<g id="g648" transform="translate(737.6851,316.3103)">
					<path id="path650" class="st1" d="M-517.4,15.4L-517.4,15.4c0,4.4-3.2,8.2-7.8,8.2c-4.6,0-7.6-3.7-7.6-8.1v-0.1
						c0-4.4,3.2-8.2,7.7-8.2C-520.5,7.3-517.4,11-517.4,15.4 M-541.4,15.4L-541.4,15.4c0,8.8,7,15.8,16.3,15.8s16.2-6.9,16.2-15.6
						v-0.1c0-8.7-7-15.7-16.3-15.7C-534.5-0.2-541.4,6.7-541.4,15.4"/>
				</g>
				<g id="g652" transform="translate(552.0452,262.2383)">
					<path id="path654" class="st1" d="M-449,35.3c3,0,4.8,1.6,4.8,3.9v0.1c0,2.6-1.8,4-4.8,4h-3.9v-8H-449z M-461.4,50.3h12.9
						c7.6,0,12.6-3.9,12.6-10.6v-0.1c0-7.1-5.5-10.9-13-10.9h-4.1v-8.8h-8.4V50.3z"/>
				</g>
				<g id="g656" transform="translate(596.7499,256.7397)">
					<path id="path658" class="st1" d="M-465.5,37.3l-3.4,8.6l-3.4-8.6H-465.5z M-472.8,55.9h8.1l12.9-30.4h-9l-2.2,5.4h-11.7
						l-2.2-5.4h-8.8L-472.8,55.9z"/>
				</g>
				<g id="g660" transform="translate(615.3421,259.1624)">
					<path id="path662" class="st1" d="M-472.4,36.5v17h8.5V36.6c0-4.4,2.2-6.4,5.6-6.4c3.4,0,5.6,2,5.6,6.2v17h8.5V36.7
						c0-9.8-5.6-14-14.2-14C-467,22.6-472.4,27-472.4,36.5"/>
				</g>
				<g id="g664" transform="translate(662.9893,286.0224)">
					<path id="path666" class="st1" d="M-489.9,26.6h8.4V3.5h14.6v-7.3h-23V26.6z"/>
				</g>
				<g id="g668" transform="translate(737.6851,261.9648)">
					<path id="path670" class="st1" d="M-517.4,35.4L-517.4,35.4c0,4.4-3.2,8.2-7.8,8.2c-4.6,0-7.6-3.7-7.6-8.1v-0.1
						c0-4.4,3.2-8.2,7.7-8.2C-520.5,27.4-517.4,31.1-517.4,35.4 M-541.4,35.4L-541.4,35.4c0,8.8,7,15.8,16.3,15.8
						c9.3,0,16.2-6.9,16.2-15.6v-0.1c0-8.7-7-15.7-16.3-15.7C-534.5,19.8-541.4,26.7-541.4,35.4"/>
				</g>
			</g>
		</g>
	</g>
	<g id="g672">
		<g id="g674">
			<g id="g680">
				<g id="g682">
					
						<linearGradient id="path704_1_" gradientUnits="userSpaceOnUse" x1="-414.1702" y1="-224.9747" x2="-413.5387" y2="-224.9747" gradientTransform="matrix(106.1603 4.581 0 -106.1603 44059.6602 -21651.9141)">
						<stop  offset="0" style="stop-color:#A3A3A4"/>
						<stop  offset="0.2111" style="stop-color:#FFFFFF"/>
						<stop  offset="0.3011" style="stop-color:#FFFFFF"/>
						<stop  offset="0.4407" style="stop-color:#DCDADA"/>
						<stop  offset="0.6159" style="stop-color:#DCDADA"/>
						<stop  offset="0.7195" style="stop-color:#DCDADA"/>
						<stop  offset="0.8887" style="stop-color:#FFFFFF"/>
						<stop  offset="0.9121" style="stop-color:#FFFFFF"/>
						<stop  offset="1" style="stop-color:#CDCBCB"/>
					</linearGradient>
					<path id="path704" class="st2" d="M140.9,345.4c-4.2-4.5-11.1-5.3-18-5.6l0,0c-3.7-0.2-7.3-0.3-11-0.6l0,0
						c-6.9-0.6-13.9-1.5-18.1-6l0,0c-0.9-0.9-1.6-2-2.2-3.3l0,0c-0.8-1.7-1-3.4-1-5.1l0,0V322c0,1.7,0.2,3.4,1,5.1l0,0
						c0.6,1.3,1.3,2.4,2.2,3.3l0,0c4.2,4.5,11.2,5.4,18.1,6l0,0c3.7,0.3,7.3,0.4,11,0.6l0,0c6.9,0.3,13.9,1.1,18,5.6l0,0
						c0.8,0.9,1.5,1.9,2.1,3.1l0,0v2.8C142.4,347.3,141.7,346.3,140.9,345.4"/>
				</g>
			</g>
		</g>
	</g>
	<g id="g706">
		<g id="g708">
			<g id="g714">
				<g id="g716">
					
						<linearGradient id="path738_1_" gradientUnits="userSpaceOnUse" x1="-414.1702" y1="-225.004" x2="-413.5387" y2="-225.004" gradientTransform="matrix(106.1624 4.5811 0 -106.1624 44060.5273 -21660.8086)">
						<stop  offset="0" style="stop-color:#A3A3A4"/>
						<stop  offset="0.2111" style="stop-color:#FFFFFF"/>
						<stop  offset="0.3011" style="stop-color:#FFFFFF"/>
						<stop  offset="0.4407" style="stop-color:#DCDADA"/>
						<stop  offset="0.6159" style="stop-color:#DCDADA"/>
						<stop  offset="0.7195" style="stop-color:#DCDADA"/>
						<stop  offset="0.8887" style="stop-color:#FFFFFF"/>
						<stop  offset="0.9121" style="stop-color:#FFFFFF"/>
						<stop  offset="1" style="stop-color:#CDCBCB"/>
					</linearGradient>
					<path id="path738" class="st3" d="M140.9,340.1c-4.2-4.5-11.1-5.1-18-5.4l0,0c-3.7-0.2-7.3-0.5-11-0.8l0,0
						c-6.9-0.6-13.9-1.5-18.1-6l0,0c-0.9-0.9-1.6-2-2.2-3.3l0,0c-0.8-1.7-1-3.4-1-5.1l0,0v-2.8c0,1.7,0.2,3.4,1,5.1l0,0
						c0.6,1.3,1.3,2.4,2.2,3.3l0,0c4.2,4.5,11.2,5.4,18.1,6l0,0c3.7,0.3,7.3,0.6,11,0.8l0,0c6.9,0.3,13.9,0.9,18,5.4l0,0
						c0.8,0.9,1.5,1.9,2.1,3.1l0,0v2.8C142.4,341.9,141.7,340.9,140.9,340.1"/>
				</g>
			</g>
		</g>
	</g>
	<g id="g740">
		<g id="g742">
			<g id="g748">
				<g id="g750">
					
						<linearGradient id="path772_1_" gradientUnits="userSpaceOnUse" x1="-414.1702" y1="-225.0334" x2="-413.5387" y2="-225.0334" gradientTransform="matrix(106.1634 4.5812 0 -106.1634 44060.9453 -21669.4883)">
						<stop  offset="0" style="stop-color:#A3A3A4"/>
						<stop  offset="0.2111" style="stop-color:#FFFFFF"/>
						<stop  offset="0.3011" style="stop-color:#FFFFFF"/>
						<stop  offset="0.4407" style="stop-color:#DCDADA"/>
						<stop  offset="0.6159" style="stop-color:#DCDADA"/>
						<stop  offset="0.7195" style="stop-color:#DCDADA"/>
						<stop  offset="0.8887" style="stop-color:#FFFFFF"/>
						<stop  offset="0.9121" style="stop-color:#FFFFFF"/>
						<stop  offset="1" style="stop-color:#CDCBCB"/>
					</linearGradient>
					<path id="path772" class="st4" d="M140.9,334.7c-4.2-4.5-11.1-5.3-18-5.6l0,0c-3.7-0.2-7.3-0.3-11-0.6l0,0
						c-6.9-0.6-13.9-1.5-18.1-6l0,0c-0.9-0.9-1.6-2-2.2-3.3l0,0c-0.8-1.7-1-3.4-1-5.1l0,0v-2.8c0,1.7,0.2,3.4,1,5.1l0,0
						c0.6,1.3,1.3,2.4,2.2,3.3l0,0c4.2,4.5,11.2,5.4,18.1,6l0,0c3.7,0.3,7.3,0.4,11,0.6l0,0c6.9,0.3,13.9,1.1,18,5.6l0,0
						c0.8,0.9,1.5,1.9,2.1,3.1l0,0v2.8C142.4,336.6,141.7,335.6,140.9,334.7"/>
				</g>
			</g>
		</g>
	</g>
	<g id="g774">
		<g id="g776">
			<g id="g782">
				<g id="g784">
					
						<linearGradient id="path806_1_" gradientUnits="userSpaceOnUse" x1="-414.1702" y1="-225.0923" x2="-413.5387" y2="-225.0923" gradientTransform="matrix(106.1684 4.5814 0 -106.1684 44063.0234 -21687.4609)">
						<stop  offset="0" style="stop-color:#A3A3A4"/>
						<stop  offset="0.2111" style="stop-color:#FFFFFF"/>
						<stop  offset="0.3011" style="stop-color:#FFFFFF"/>
						<stop  offset="0.4407" style="stop-color:#DCDADA"/>
						<stop  offset="0.6159" style="stop-color:#DCDADA"/>
						<stop  offset="0.7195" style="stop-color:#DCDADA"/>
						<stop  offset="0.8887" style="stop-color:#FFFFFF"/>
						<stop  offset="0.9121" style="stop-color:#FFFFFF"/>
						<stop  offset="1" style="stop-color:#CDCBCB"/>
					</linearGradient>
					<path id="path806" class="st5" d="M140.9,324c-4.2-4.5-11.1-5.3-18-5.6l0,0c-3.7-0.2-7.3-0.3-11-0.6l0,0
						c-6.9-0.6-13.9-1.5-18.1-6l0,0c-0.9-0.9-1.6-2-2.2-3.3l0,0c-0.8-1.7-1-3.4-1-5.1l0,0v-2.8c0,1.7,0.2,3.4,1,5.1l0,0
						c0.6,1.3,1.3,2.4,2.2,3.3l0,0c4.2,4.5,11.2,5.4,18.1,6l0,0c3.7,0.3,7.3,0.4,11,0.6l0,0c6.9,0.3,13.9,1.1,18,5.6l0,0
						c0.8,0.9,1.5,1.9,2.1,3.1l0,0v2.8C142.4,325.9,141.7,324.9,140.9,324"/>
				</g>
			</g>
		</g>
	</g>
	<g id="g808">
		<g id="g810">
			<g id="g816">
				<g id="g818">
					
						<linearGradient id="path840_1_" gradientUnits="userSpaceOnUse" x1="-414.1702" y1="-225.1217" x2="-413.5387" y2="-225.1217" gradientTransform="matrix(106.1689 4.5814 0 -106.1689 44063.2305 -21696.0234)">
						<stop  offset="0" style="stop-color:#A3A3A4"/>
						<stop  offset="0.2111" style="stop-color:#FFFFFF"/>
						<stop  offset="0.3011" style="stop-color:#FFFFFF"/>
						<stop  offset="0.4407" style="stop-color:#DCDADA"/>
						<stop  offset="0.6159" style="stop-color:#DCDADA"/>
						<stop  offset="0.7195" style="stop-color:#DCDADA"/>
						<stop  offset="0.8887" style="stop-color:#FFFFFF"/>
						<stop  offset="0.9121" style="stop-color:#FFFFFF"/>
						<stop  offset="1" style="stop-color:#CDCBCB"/>
					</linearGradient>
					<path id="path840" class="st6" d="M140.9,318.7c-4.2-4.5-11.1-5.3-18-5.6l0,0c-3.7-0.2-7.3-0.3-11-0.6l0,0
						c-6.9-0.6-13.9-1.5-18.1-6l0,0c-0.9-0.9-1.6-2-2.2-3.3l0,0c-0.8-1.7-1-3.4-1-5.1l0,0v-2.8c0,1.7,0.2,3.4,1,5.1l0,0
						c0.6,1.3,1.3,2.4,2.2,3.3l0,0c4.2,4.5,11.2,5.4,18.1,6l0,0c3.7,0.3,7.3,0.4,11,0.6l0,0c6.9,0.3,13.9,1.1,18,5.6l0,0
						c0.8,0.9,1.5,1.9,2,3.1l0,0v2.8C142.4,320.6,141.7,319.6,140.9,318.7"/>
				</g>
			</g>
		</g>
	</g>
	<g id="g842">
		<g id="g844">
			<g id="g850">
				<g id="g852">
					
						<linearGradient id="path874_1_" gradientUnits="userSpaceOnUse" x1="-414.1549" y1="-224.8902" x2="-413.5234" y2="-224.8902" gradientTransform="matrix(102.6461 4.4294 0 -102.6461 42603.5273 -20912.8047)">
						<stop  offset="0" style="stop-color:#231F20"/>
						<stop  offset="1.824820e-03" style="stop-color:#231F20"/>
						<stop  offset="0.2254" style="stop-color:#454141"/>
						<stop  offset="0.5457" style="stop-color:#231F20"/>
						<stop  offset="0.5484" style="stop-color:#231F20"/>
						<stop  offset="0.6614" style="stop-color:#231F20"/>
						<stop  offset="0.8494" style="stop-color:#3C3838"/>
						<stop  offset="0.8577" style="stop-color:#3C3838"/>
						<stop  offset="1" style="stop-color:#231F20"/>
					</linearGradient>
					<path id="path874" class="st7" d="M140.9,348c-4.2-4.5-11.1-5.6-18-5.9l0,0c-0.4,0-7.7-0.3-11-0.6l0,0
						c-6.9-0.6-13.9-1.5-18.1-6l0,0c-0.9-0.9-1.6-2-2.2-3.3l0,0c-0.8-1.7-1-3.4-1-5.1l0,0v-2.3c0,1.7,0.2,3.4,1,5.1l0,0
						c0.6,1.3,1.3,2.4,2.2,3.3l0,0c4.2,4.5,11.2,5.4,18.1,6l0,0c3.7,0.3,7.3,0.4,11,0.6l0,0c7,0.3,13.9,1.1,18,5.6l0,0
						c0.8,0.9,1.5,1.9,2.1,3.1l0,0v2.6C142.4,349.8,141.7,348.8,140.9,348"/>
				</g>
			</g>
		</g>
	</g>
	<g id="g876">
		<g id="g878">
			<g id="g884">
				<g id="g886">
					
						<linearGradient id="path908_1_" gradientUnits="userSpaceOnUse" x1="-414.1549" y1="-224.9206" x2="-413.5234" y2="-224.9206" gradientTransform="matrix(102.6479 4.4295 0 -102.6479 42604.2734 -20921.6406)">
						<stop  offset="0" style="stop-color:#231F20"/>
						<stop  offset="1.824820e-03" style="stop-color:#231F20"/>
						<stop  offset="0.2254" style="stop-color:#454141"/>
						<stop  offset="0.5457" style="stop-color:#231F20"/>
						<stop  offset="0.5484" style="stop-color:#231F20"/>
						<stop  offset="0.6614" style="stop-color:#231F20"/>
						<stop  offset="0.8494" style="stop-color:#3C3838"/>
						<stop  offset="0.8577" style="stop-color:#3C3838"/>
						<stop  offset="1" style="stop-color:#231F20"/>
					</linearGradient>
					<path id="path908" class="st8" d="M140.9,342.6c-4.2-4.5-11.1-5.3-18-5.6l0,0c-3.7-0.2-7.3-0.3-11-0.6l0,0
						c-6.9-0.6-13.9-1.5-18.1-6l0,0c-0.9-0.9-1.6-2-2.2-3.3l0,0c-0.8-1.7-1-3.4-1-5.1l0,0v-2.6c0,1.7,0.2,3.4,1,5.1l0,0
						c0.6,1.3,1.3,2.4,2.2,3.3l0,0c4.2,4.5,11.2,5.4,18.1,6l0,0c3.7,0.3,7.3,0.6,11,0.8l0,0c6.9,0.3,13.9,0.9,18,5.4l0,0
						c0.8,0.9,1.5,1.9,2.1,3.1l0,0v2.6C142.4,344.5,141.7,343.5,140.9,342.6"/>
				</g>
			</g>
		</g>
	</g>
	<g id="g910">
		<g id="g912">
			<g id="g918">
				<g id="g920">
					
						<linearGradient id="path942_1_" gradientUnits="userSpaceOnUse" x1="-414.155" y1="-224.951" x2="-413.5235" y2="-224.951" gradientTransform="matrix(102.6498 4.4295 0 -102.6498 42605.0625 -20930.502)">
						<stop  offset="0" style="stop-color:#231F20"/>
						<stop  offset="1.824820e-03" style="stop-color:#231F20"/>
						<stop  offset="0.2254" style="stop-color:#454141"/>
						<stop  offset="0.5457" style="stop-color:#231F20"/>
						<stop  offset="0.5484" style="stop-color:#231F20"/>
						<stop  offset="0.6614" style="stop-color:#231F20"/>
						<stop  offset="0.8494" style="stop-color:#3C3838"/>
						<stop  offset="0.8577" style="stop-color:#3C3838"/>
						<stop  offset="1" style="stop-color:#231F20"/>
					</linearGradient>
					<path id="path942" class="st9" d="M140.9,337.3c-4.2-4.5-11.2-5.1-18-5.4l0,0c-3.7-0.2-7.3-0.5-11-0.8l0,0
						c-6.9-0.6-13.9-1.5-18.1-6l0,0c-0.9-0.9-1.6-2-2.2-3.3l0,0c-0.8-1.7-1-3.4-1-5.1l0,0v-2.6c0,1.7,0.2,3.4,1,5.1l0,0
						c0.6,1.3,1.3,2.4,2.2,3.3l0,0c4.2,4.5,11.2,5.4,18.1,6l0,0c3.7,0.3,7.3,0.4,11,0.6l0,0c6.9,0.3,13.9,1.1,18,5.6l0,0
						c0.8,0.9,1.5,1.9,2.1,3.1l0,0v2.6C142.4,339.2,141.7,338.1,140.9,337.3"/>
				</g>
			</g>
		</g>
	</g>
	<g id="g944">
		<g id="g946">
			<g id="g952">
				<g id="g954">
					
						<linearGradient id="path976_1_" gradientUnits="userSpaceOnUse" x1="-414.155" y1="-225.0118" x2="-413.5235" y2="-225.0118" gradientTransform="matrix(102.6506 4.4296 0 -102.6506 42605.3945 -20947.5938)">
						<stop  offset="0" style="stop-color:#231F20"/>
						<stop  offset="1.824820e-03" style="stop-color:#231F20"/>
						<stop  offset="0.2254" style="stop-color:#454141"/>
						<stop  offset="0.5457" style="stop-color:#231F20"/>
						<stop  offset="0.5484" style="stop-color:#231F20"/>
						<stop  offset="0.6614" style="stop-color:#231F20"/>
						<stop  offset="0.8494" style="stop-color:#3C3838"/>
						<stop  offset="0.8577" style="stop-color:#3C3838"/>
						<stop  offset="1" style="stop-color:#231F20"/>
					</linearGradient>
					<path id="path976" class="st10" d="M140.9,326.6c-4.2-4.5-11.1-5.3-18-5.6l0,0c-3.7-0.2-7.3-0.3-11-0.6l0,0
						c-6.9-0.6-13.9-1.5-18.1-6l0,0c-0.9-0.9-1.6-2-2.2-3.3l0,0c-0.8-1.7-1-3.4-1-5.1l0,0v-2.6c0,1.7,0.2,3.4,1,5.1l0,0
						c0.6,1.3,1.3,2.4,2.2,3.3l0,0c4.2,4.5,11.2,5.4,18.1,6l0,0c3.7,0.3,7.3,0.4,11,0.6l0,0c6.9,0.3,13.9,1.1,18,5.6l0,0
						c0.8,0.9,1.5,1.9,2.1,3.1l0,0v2.6C142.4,328.5,141.7,327.5,140.9,326.6"/>
				</g>
			</g>
		</g>
	</g>
	<g id="g978">
		<g id="g980">
			<g id="g986">
				<g id="g988">
					
						<linearGradient id="path1010_1_" gradientUnits="userSpaceOnUse" x1="-414.155" y1="-225.0422" x2="-413.5235" y2="-225.0422" gradientTransform="matrix(102.6542 4.4297 0 -102.6542 42606.8789 -20956.8047)">
						<stop  offset="0" style="stop-color:#231F20"/>
						<stop  offset="1.824820e-03" style="stop-color:#231F20"/>
						<stop  offset="0.2254" style="stop-color:#454141"/>
						<stop  offset="0.5457" style="stop-color:#231F20"/>
						<stop  offset="0.5484" style="stop-color:#231F20"/>
						<stop  offset="0.6614" style="stop-color:#231F20"/>
						<stop  offset="0.8494" style="stop-color:#3C3838"/>
						<stop  offset="0.8577" style="stop-color:#3C3838"/>
						<stop  offset="1" style="stop-color:#231F20"/>
					</linearGradient>
					<path id="path1010" class="st11" d="M140.9,321.3c-4.2-4.5-11.1-5.3-18-5.6l0,0c-3.7-0.2-7.3-0.3-11-0.6l0,0
						c-6.9-0.6-13.9-1.5-18.1-6l0,0c-0.9-0.9-1.6-2-2.2-3.3l0,0c-0.8-1.7-1-3.4-1-5.1l0,0v-2.6c0,1.7,0.2,3.4,1,5.1l0,0
						c0.6,1.3,1.3,2.4,2.2,3.3l0,0c4.2,4.5,11.2,5.4,18.1,6l0,0c3.7,0.3,7.3,0.4,11,0.6l0,0c6.9,0.3,13.9,1.1,18,5.6l0,0
						c0.8,0.9,1.5,1.9,2,3.1l0,0v2.6C142.4,323.1,141.7,322.1,140.9,321.3"/>
				</g>
			</g>
		</g>
	</g>
	<g id="g1012">
		<g id="g1014">
			<g id="g1020">
				<g id="g1022">
					
						<linearGradient id="path1044_1_" gradientUnits="userSpaceOnUse" x1="-414.155" y1="-225.0726" x2="-413.5235" y2="-225.0726" gradientTransform="matrix(102.6556 4.4298 0 -102.6556 42607.4648 -20965.5566)">
						<stop  offset="0" style="stop-color:#231F20"/>
						<stop  offset="1.824820e-03" style="stop-color:#231F20"/>
						<stop  offset="0.2254" style="stop-color:#454141"/>
						<stop  offset="0.5457" style="stop-color:#231F20"/>
						<stop  offset="0.5484" style="stop-color:#231F20"/>
						<stop  offset="0.6614" style="stop-color:#231F20"/>
						<stop  offset="0.8494" style="stop-color:#3C3838"/>
						<stop  offset="0.8577" style="stop-color:#3C3838"/>
						<stop  offset="1" style="stop-color:#231F20"/>
					</linearGradient>
					<path id="path1044" class="st12" d="M140.9,315.9c-4.2-4.5-11.1-5.3-18-5.6l0,0c-3.7-0.2-7.3-0.3-11-0.6l0,0
						c-6.9-0.6-13.9-1.5-18.1-6l0,0c-0.9-0.9-1.6-2-2.2-3.3l0,0c-0.8-1.7-1-3.4-1-5.1l0,0v-2.6c0,1.7,0.2,3.4,1,5.1l0,0
						c0.6,1.3,1.3,2.4,2.2,3.3l0,0c4.2,4.5,11.2,5.4,18.1,6l0,0c3.6,0.3,7.3,0.4,10.9,0.6l0,0c6.9,0.3,13.9,1.4,18.1,5.9l0,0
						c0.8,0.9,1.5,1.9,2,3.1l0,0v2.3C142.4,317.8,141.7,316.8,140.9,315.9"/>
				</g>
			</g>
		</g>
	</g>
	<g id="g1046">
		<g id="g1048">
			<g id="g1054">
				<g id="g1056">
					
						<linearGradient id="path1078_1_" gradientUnits="userSpaceOnUse" x1="-414.1702" y1="-225.0628" x2="-413.5387" y2="-225.0628" gradientTransform="matrix(106.1647 4.5812 0 -106.1647 44061.5 -21678.2266)">
						<stop  offset="0" style="stop-color:#A3A3A4"/>
						<stop  offset="0.2111" style="stop-color:#FFFFFF"/>
						<stop  offset="0.3011" style="stop-color:#FFFFFF"/>
						<stop  offset="0.4407" style="stop-color:#DCDADA"/>
						<stop  offset="0.6159" style="stop-color:#DCDADA"/>
						<stop  offset="0.7195" style="stop-color:#DCDADA"/>
						<stop  offset="0.8887" style="stop-color:#FFFFFF"/>
						<stop  offset="0.9121" style="stop-color:#FFFFFF"/>
						<stop  offset="1" style="stop-color:#CDCBCB"/>
					</linearGradient>
					<path id="path1078" class="st13" d="M140.9,329.4c-4.2-4.5-11.1-5.3-18-5.6l0,0c-3.7-0.2-7.3-0.3-11-0.6l0,0
						c-6.9-0.6-13.9-1.5-18.1-6l0,0c-0.9-0.9-1.6-2-2.2-3.3l0,0c-0.8-1.7-1-3.4-1-5.1l0,0V306c0,1.7,0.2,3.4,1,5.1l0,0
						c0.6,1.3,1.3,2.4,2.2,3.3l0,0c4.2,4.5,11.2,5.4,18.1,6l0,0c3.7,0.3,7.3,0.4,11,0.6l0,0c6.9,0.3,13.9,1.1,18,5.6l0,0
						c0.8,0.9,1.5,1.9,2.1,3.1l0,0v2.8C142.4,331.3,141.7,330.2,140.9,329.4"/>
				</g>
			</g>
		</g>
	</g>
	<g id="g1080">
		<g id="g1082">
			<g id="g1088">
				<g id="g1090">
					
						<linearGradient id="path1112_1_" gradientUnits="userSpaceOnUse" x1="-414.1549" y1="-224.9814" x2="-413.5235" y2="-224.9814" gradientTransform="matrix(102.6493 4.4295 0 -102.6493 42604.8594 -20938.8613)">
						<stop  offset="0" style="stop-color:#231F20"/>
						<stop  offset="1.824820e-03" style="stop-color:#231F20"/>
						<stop  offset="0.2254" style="stop-color:#454141"/>
						<stop  offset="0.5457" style="stop-color:#231F20"/>
						<stop  offset="0.5484" style="stop-color:#231F20"/>
						<stop  offset="0.6614" style="stop-color:#231F20"/>
						<stop  offset="0.8494" style="stop-color:#3C3838"/>
						<stop  offset="0.8577" style="stop-color:#3C3838"/>
						<stop  offset="1" style="stop-color:#231F20"/>
					</linearGradient>
					<path id="path1112" class="st14" d="M140.9,331.9c-4.2-4.5-11.2-5.3-18-5.6l0,0c-3.5-0.2-7-0.3-10.5-0.5l0,0
						c-0.1,0-0.3,0-0.4,0l0,0c-6.9-0.6-13.9-1.5-18.1-6l0,0c-0.9-0.9-1.6-2-2.2-3.3l0,0c-0.8-1.7-1-3.4-1-5.1l0,0v-2.6
						c0,1.7,0.2,3.4,1,5.1l0,0c0.6,1.3,1.3,2.4,2.2,3.3l0,0c4.2,4.5,11.2,5.4,18.1,6l0,0c3.7,0.3,7.3,0.4,11,0.6l0,0
						c6.9,0.3,13.9,1.1,18,5.6l0,0c0.8,0.9,1.5,1.9,2.1,3.1l0,0v2.6C142.4,333.8,141.7,332.8,140.9,331.9"/>
				</g>
			</g>
		</g>
	</g>
	<g id="g1114">
		<g>
			<defs>
				<rect id="SVGID_3_" x="67.7" y="254.5" width="184.2" height="117"/>
			</defs>
			<clipPath id="SVGID_4_">
				<use xlink:href="#SVGID_3_"  style="overflow:visible;"/>
			</clipPath>
			<g id="g1116" class="st15">
				<g id="g1122" transform="translate(558.1462,331.0338)">
					<path id="path1124" class="st16" d="M-451.3,10c-5.1-0.7-9.9-2-13-5.4c-0.9-0.9-1.6-2-2.2-3.3c-0.8-1.7-1-3.4-1-5.1v-2.3v-2.8
						v-2.6v-2.8v-2.6c0,1.7,0.2,3.3,1,5c0.6,1.3,1.3,2.4,2.2,3.3c3.3,3.4,7.7,4.8,13,5.6V10z"/>
				</g>
				<g id="g1126" transform="translate(550.6029,320.4233)">
					<path id="path1128" class="st1" d="M-448.5,13.9c0.1-2.8-1.9-5.9-4.5-7.5c-2.6-1.6-4.8-0.3-5,2.5c-0.1,2.8,1.9,5.9,4.5,7.5
						C-450.9,18-448.6,16.7-448.5,13.9"/>
				</g>
				<g id="g1130" transform="translate(541.1776,321.0172)">
					<path id="path1132" class="st17" d="M-445,13.7C-445,13.7-445,13.7-445,13.7C-445,13.7-445,13.7-445,13.7c0.1,0,0-0.1,0-0.1
						c0,0,0.1,0,0.1,0c0,0,0,0,0,0c0,0,0,0,0,0c0,0,0-0.1-0.1-0.1c0-0.1-0.1-0.2,0-0.2c0,0,0-0.1,0-0.1c0.1,0,0.1-0.1,0.2,0
						c0,0,0,0,0,0c0,0,0,0,0,0c0,0,0,0,0,0c0,0,0,0,0,0c0,0,0,0,0,0c0,0,0,0,0,0c0,0,0,0.1,0.1,0.1c0,0,0,0.1,0.1,0.1
						c0.1,0,0.1,0.1,0.2,0.1c0,0,0,0,0,0.1c0,0,0,0,0,0.1c0,0,0,0,0,0c0.1,0,0.1,0.1,0.1,0.1c0,0,0,0,0,0c0,0,0,0,0,0c0,0,0,0,0,0
						c0,0,0,0,0,0c0,0,0.1,0,0.1,0c0,0,0,0.1,0.1,0.1c0.1,0,0.1,0.1,0.1,0c0.1,0.1,0.1,0.2,0.1,0.2c0,0.1,0.1,0.2,0.1,0.3
						c0,0,0.1,0,0.1,0c0,0,0,0,0,0c0-0.1,0.1-0.2,0.1-0.3c0,0,0,0,0,0c0,0,0,0,0-0.1c0,0,0,0,0.1,0c0-0.1,0-0.1,0-0.2c0,0,0,0,0-0.1
						c0,0,0,0,0.1,0c0.1-0.1,0.1,0,0.2,0c0,0,0,0,0-0.1c0,0,0.1,0,0.1,0c0.1,0.1,0.1,0.1,0.2,0.1c0,0,0,0,0,0c0,0,0,0,0,0
						c0,0,0,0,0,0c0,0,0,0,0,0c0,0,0,0,0,0c0,0,0,0,0,0c0,0,0,0,0,0c0,0,0,0,0,0c0,0,0,0,0,0c0,0,0,0,0,0c0,0,0,0,0,0c0,0,0,0,0,0
						c0,0,0,0,0,0c0,0,0,0,0,0c0,0,0,0,0,0c0,0,0,0,0,0c0,0,0,0.1,0.1,0.1c0,0,0,0,0,0c0,0,0,0,0,0c0,0,0,0,0-0.1c0,0,0,0,0-0.1
						c0,0,0.1,0.1,0.1,0c0,0,0,0.1,0.1,0.1c0,0,0,0,0,0c0,0.1,0.1,0,0.2,0c0,0,0.1,0.1,0.1,0.1c0,0,0.2,0.1,0.2,0.1
						c0.1,0.1,0.2,0,0.3,0c0,0,0,0,0.1,0c0,0,0.1-0.1,0.1-0.1c0-0.1,0.1,0,0.1,0c0,0,0,0,0,0c0,0,0,0,0,0c0.1,0,0.1,0.1,0.2,0.1
						c0.1-0.1,0.1-0.2,0.1-0.3c0-0.2,0-0.5-0.2-0.6c0-0.1,0-0.1-0.1-0.2c0,0,0,0,0-0.1c-0.2-0.2-0.2-0.5-0.3-0.7c0,0,0,0,0,0
						c0,0,0-0.1-0.1-0.1c0,0,0,0,0,0c0-0.1,0-0.3,0-0.5c0-0.1-0.1-0.3,0-0.4c0,0,0-0.1,0-0.1c-0.1-0.1,0-0.3-0.1-0.4
						c-0.1-0.1-0.1-0.2-0.1-0.3c0,0,0,0,0,0c0,0,0-0.1-0.1-0.2c0,0,0-0.1,0-0.1c-0.1-0.1-0.1-0.1-0.2-0.2c0,0,0-0.1,0-0.1
						c-0.1,0-0.2-0.1-0.4-0.2c0,0,0,0,0,0c0,0,0,0,0,0c0,0,0,0,0,0c0,0,0,0-0.1,0c0,0,0,0,0,0c0,0,0,0-0.1,0c0,0,0,0,0,0
						c0,0,0,0,0,0c0,0-0.1-0.1-0.1-0.1c0,0,0-0.1-0.1-0.1c0,0,0,0,0,0c0,0,0,0,0,0c-0.1,0-0.1,0-0.1-0.1c0,0,0,0,0-0.1c0,0,0,0,0,0
						c0,0-0.1-0.1-0.1-0.1c0-0.1-0.1-0.1-0.1-0.1c-0.1,0-0.1-0.1-0.1-0.2c0,0,0,0,0,0c0,0,0-0.1-0.1-0.1c0,0,0,0,0,0
						c0,0,0-0.1,0-0.1c0,0,0,0,0,0c0,0,0,0,0-0.1c0,0,0,0,0,0c0,0,0,0,0-0.1c0,0,0,0,0,0c0-0.1,0-0.2,0-0.3
						c-0.1-0.1-0.2-0.3-0.2-0.4c0,0,0-0.1,0-0.1c0,0-0.1-0.1-0.1-0.2c-0.1-0.1-0.2-0.2-0.2-0.3c0,0,0,0,0,0c0-0.1,0-0.1-0.1-0.2
						c0,0-0.1-0.1-0.1-0.2c-0.1,0,0,0.1-0.1,0c0,0,0.1,0.1,0.1,0.1c0,0,0,0,0,0c0,0,0,0,0,0c0,0-0.1,0-0.1,0c0,0.1-0.1,0-0.2,0
						c0,0,0,0,0,0c-0.1,0-0.1,0-0.2,0c0,0,0-0.1-0.1-0.1c0,0,0,0,0,0c-0.1,0-0.1,0.1-0.2,0c0,0,0,0,0-0.1c0,0,0,0-0.1,0c0,0,0,0,0,0
						c0,0,0.1,0.1,0,0.1c0.1,0.1,0.1,0.1,0.1,0.2c0.1,0.1,0.1,0.2,0.2,0.2c0,0,0,0,0,0c0.1,0.1,0.1,0.1,0.1,0.2c0,0,0,0,0,0.1
						c0,0,0.1,0.1,0.1,0.1c0,0.1,0.1,0.1,0.1,0.1c0,0,0,0.1,0,0.1c0,0,0,0.1-0.1,0.1c0,0,0,0,0,0c0,0,0,0,0,0c0,0,0,0.1,0,0.1
						c0,0.1,0,0.2,0,0.2c0,0.1-0.1-0.1-0.2-0.1c0,0,0,0.1-0.1,0.2c0,0,0,0,0,0.1c0,0,0,0,0,0c0,0.1-0.1,0-0.1,0
						c-0.1-0.1-0.2-0.1-0.3-0.2c0,0,0,0.1,0,0.1c0,0,0,0.1,0,0.1c0,0.1,0,0.1,0,0.2c0,0,0,0,0,0c0,0,0,0.1,0,0.1c0,0,0,0,0,0
						c0,0.1,0,0.1,0.1,0.2c0,0,0,0.1,0,0.2c0,0,0,0.1-0.1,0.1c0,0,0,0,0,0c-0.1,0-0.1,0.1-0.1,0.2c0,0,0,0,0,0
						c-0.1-0.1-0.2-0.1-0.3-0.2c0,0,0,0.1,0,0.1c0,0-0.1,0-0.1,0.1c0,0,0,0,0.1,0c0,0,0,0.1,0,0.1c0,0,0,0.1,0,0.1c0,0-0.1,0-0.1,0
						c0,0-0.1-0.1-0.1-0.1c0,0-0.1,0-0.1,0c-0.1,0-0.1-0.1-0.2,0c0-0.1-0.1,0-0.1,0c0-0.1-0.1-0.1-0.1-0.1c0,0,0,0,0,0
						c0,0-0.1,0-0.1,0c0,0,0,0,0,0c0,0,0,0,0,0c0,0,0,0,0,0c0,0.1-0.1,0.1,0,0.1c-0.1,0,0,0.2,0,0.2c0,0,0,0,0,0
						c-0.1,0-0.1-0.1-0.2-0.1c0,0-0.1-0.1-0.1-0.1c-0.1,0-0.1-0.1-0.1-0.1c0,0,0,0-0.1,0c0-0.1-0.1-0.1-0.1-0.2c0,0,0,0,0,0
						c-0.1,0-0.2-0.1-0.3-0.2c0,0,0,0,0,0c0,0,0,0,0,0c0,0.1,0,0.1,0,0.2c0,0,0,0,0,0c0,0,0,0,0,0c0,0-0.1-0.1-0.1-0.2
						c-0.1,0-0.1-0.1-0.2-0.1c0,0.1,0,0,0,0.1c-0.1,0-0.1,0-0.2-0.1c0,0,0,0.1,0,0.1c0,0-0.1,0-0.1,0.1c0,0,0,0.1-0.1,0.1
						c0,0,0,0,0,0c0,0,0,0-0.1,0c0,0,0,0,0,0c0,0,0,0,0,0c0,0.1,0,0.2,0.1,0.2c0,0.1,0.1,0.2,0,0.3c0,0,0.1,0.1,0.1,0.1
						c0,0,0.1,0.1,0.1,0.1c0,0,0.1,0,0.1,0.1c0.1,0,0.1,0.1,0.1,0.1c0,0,0,0,0,0c0,0,0,0,0.1,0c0,0,0,0,0,0c0,0,0,0,0,0
						c0,0.2,0.1,0.4,0.1,0.6c0,0.1,0,0.1,0,0.1c0,0,0,0,0,0c0,0-0.1,0-0.1,0c0,0,0,0.1,0,0.1c0,0,0.1,0.1,0.1,0.1c0,0,0,0,0.1,0
						c0,0,0,0,0,0.1c0,0-0.1,0-0.1-0.1c0,0,0,0.1,0,0.1c0.1,0.1,0.2,0.1,0.3,0.2c0,0,0,0,0,0.1c0,0,0,0,0,0c0,0.1,0.1,0.1,0.1,0.1
						c0,0,0,0,0-0.1c0.1,0,0-0.1,0-0.1c0,0,0,0,0,0c0,0,0.1,0,0.1,0c0.1,0,0.1,0.1,0.1,0.1c0,0,0,0,0,0c0,0,0,0,0-0.1
						c0,0,0,0.1,0.1,0.1c0,0,0,0,0,0c0,0,0,0,0,0c0,0,0,0,0,0.1c0,0,0,0,0,0c0,0,0.1,0.1,0.1,0.1c0,0,0,0,0,0.1c0,0,0,0,0,0.1
						c0,0,0.1,0.1,0.1,0.1c0,0,0,0,0,0c0,0-0.1-0.1-0.1-0.1c0,0,0,0,0,0.1c0,0-0.1,0.1,0,0.1c0,0-0.1,0-0.1,0.1c0,0,0,0,0,0
						c0,0,0.1,0,0.1,0c0-0.1,0.1,0,0.1,0c0,0,0,0,0,0c0,0,0,0,0,0c0,0,0,0,0.1,0c0,0,0,0,0,0c0,0,0,0,0,0c0,0,0,0,0,0.1
						c0,0,0,0,0.1,0.1c0,0,0.1,0,0.1,0c0,0,0,0.1,0.1,0.1c0,0,0,0.1,0,0.1c0,0,0,0,0.1,0c0,0,0,0,0,0
						C-445.1,13.5-445.1,13.6-445,13.7C-445.1,13.6-445,13.6-445,13.7"/>
				</g>
				<g id="g1134" transform="translate(552.4771,323.7657)">
					<path id="path1136" class="st18" d="M-449.2,12.6l1,0.9l1-0.6l-0.4,1.1l1,0.9l-1.2-0.2l-0.4,1.1l-0.4-1.3l-1.2-0.2l1-0.6
						L-449.2,12.6z"/>
				</g>
				<g id="g1138" transform="translate(556.7206,316.4031)">
					<path id="path1140" class="st18" d="M-450.8,15.4l-1.3-0.2l-0.4,1.2l-0.4-1.4l-1.3-0.2l1.1-0.6l-0.4-1.4l1.1,1l1.1-0.6
						l-0.4,1.2L-450.8,15.4z"/>
				</g>
				<g id="g1142" transform="translate(534.0869,312.5237)">
					<path id="path1144" class="st18" d="M-442.4,16.8l0.6-0.5c0,0-0.3,0.9-0.3,1.2c0,0,0,0,0,0.1l0.4,1.4c0,0-0.3-0.4-0.5-0.8
						c0,0.3-0.1,0.6-0.1,0.6s-0.1-0.5-0.2-1c-0.1-0.3-0.3-0.6-0.3-0.6l0.2-0.2c-0.1-0.6-0.2-2.1-0.2-2.1L-442.4,16.8z"/>
				</g>
				<g id="g1146" transform="translate(534.8369,305.3114)">
					<path id="path1148" class="st18" d="M-442.7,19.4c-0.1,0.5-0.2,0.9-0.2,0.9s-0.1-0.8-0.2-1.5c-0.2-0.3-0.4-0.9-0.4-0.9
						s0.1-0.1,0.3-0.1c0,0,0,0,0,0c0-0.5-0.2-2.1-0.2-2.1l0.5,2c0.3-0.1,0.5-0.2,0.5-0.2s-0.1,0.5-0.3,1.1l0.5,1.8
						C-442,20.4-442.4,19.9-442.7,19.4"/>
				</g>
				<g id="g1150" transform="translate(539.6907,222.8197)">
					<path id="path1152" class="st1" d="M-444.5,49.8h1.9v-1.3c-0.5-0.3-1.1-0.5-1.8-0.5c-1.6,0-2.7,1.2-2.7,2.8v0
						c0,1.5,1.1,2.7,2.5,2.7c1,0,1.6-0.3,2.3-0.9l1.2,1.5c-0.9,0.8-1.9,1.2-3.4,1.2c-2.7,0-4.6-2-4.6-4.5v0c0-2.6,1.9-4.5,4.6-4.5
						c1.6,0,2.8,0.6,3.7,1.4v3.8h-3.8V49.8z"/>
				</g>
				<g id="g1154" transform="translate(559.0563,224.3608)">
					<path id="path1156" class="st1" d="M-451.6,49.3c0-1.5-1.1-2.7-2.6-2.7c-1.6,0-2.7,1.3-2.7,2.8v0c0,1.5,1.1,2.7,2.6,2.7
						C-452.7,52.1-451.6,50.8-451.6,49.3L-451.6,49.3z M-454.2,53.8c-2.7,0-4.7-2-4.7-4.5v0c0-2.5,1.9-4.5,4.6-4.5
						c2.7,0,4.7,2,4.7,4.5v0C-449.6,51.8-451.5,53.8-454.2,53.8"/>
				</g>
				<g id="g1158" transform="translate(568.9567,221.6549)">
					<path id="path1160" class="st1" d="M-455.3,50.3l-2.3,6.1h-2.1l3.5-8.8h1.7l3.5,8.8h-2.1L-455.3,50.3z"/>
				</g>
				<g id="g1162" transform="translate(598.248,226.5685)">
					<path id="path1164" class="st1" d="M-466.1,48.5c0-0.7-0.5-1.2-1.5-1.2h-2v2.5h1.9C-466.6,49.7-466.1,49.3-466.1,48.5
						L-466.1,48.5z M-464.1,48.6L-464.1,48.6c0,0.9-0.3,1.5-0.8,2c-0.6,0.6-1.4,0.9-2.6,0.9h-4v-8.8h1.9v2.8h1.5l1.9-2.8h2.3
						l-2.1,3.1C-464.9,46.3-464.1,47.2-464.1,48.6"/>
				</g>
				<g id="g1166" transform="translate(612.5637,222.7995)">
					<path id="path1168" class="st1" d="M-471.3,49.9l-4.1,5.4h-1.8v-8.8h1.9v5.6l4.2-5.6h1.6v8.8h-1.9V49.9z"/>
				</g>
				<g id="g1170" transform="translate(628.9178,224.3851)">
					<path id="path1172" class="st1" d="M-477.4,49.3c0-1.5-1.1-2.7-2.6-2.7c-1.6,0-2.7,1.3-2.7,2.8v0c0,1.5,1.1,2.7,2.6,2.7
						C-478.5,52-477.4,50.8-477.4,49.3L-477.4,49.3z M-480,53.8c-2.7,0-4.7-2-4.7-4.5v0c0-2.5,1.9-4.5,4.6-4.5c2.7,0,4.7,2,4.7,4.5
						v0C-475.3,51.8-477.3,53.8-480,53.8"/>
				</g>
				<g id="g1174" transform="translate(675.2917,223.0925)">
					<path id="path1176" class="st1" d="M-494.4,49.7h4.1v1.7h-4.1v1.8h4.7V55h-6.6v-8.8h6.7v1.7h-4.8V49.7z"/>
				</g>
				<g id="g1178" transform="translate(690.4921,225.7679)">
					<path id="path1180" class="st1" d="M-500,48.8c-1.5,0.4-1.9,0.6-1.9,1.2v0c0,0.4,0.4,0.8,1.1,0.8c0.7,0,1.5-0.3,2.3-0.9l1,1.5
						c-0.9,0.7-2,1.1-3.3,1.1c-1.8,0-3.1-1.1-3.1-2.6v0c0-1.7,1.1-2.2,2.9-2.7c1.5-0.4,1.8-0.6,1.8-1.1v0c0-0.5-0.5-0.8-1.3-0.8
						c-1,0-1.8,0.4-2.6,1.1l-1.1-1.4c1.1-0.9,2.4-1.4,3.7-1.4c1.9,0,3.2,1,3.2,2.7v0C-497.3,47.7-498.3,48.3-500,48.8"/>
				</g>
				<g id="g1182" transform="translate(707.5399,231.3474)">
					<path id="path1184" class="st1" d="M-506.3,46.7h-7.3v-1.8h2.7v-7h1.9v7h2.7V46.7z"/>
				</g>
				<g id="g1186" transform="translate(710.7852,223.2948)">
					<path id="path1188" class="st1" d="M-507.5,49.7l1.2,2.8l1.2-2.8H-507.5z M-507.3,54.8L-511,46h2l0.8,2h3.7l0.8-2h2l-3.7,8.7
						H-507.3z"/>
				</g>
				<g id="g1190" transform="translate(731.6136,224.3788)">
					<path id="path1192" class="st1" d="M-515.2,49.3c0-1.5-1.1-2.6-2.6-2.6h-1.5v5.3h1.5C-516.3,51.9-515.2,50.8-515.2,49.3
						L-515.2,49.3z M-517.8,53.7h-3.4v-8.7h3.4c2.8,0,4.7,1.9,4.7,4.4v0C-513.2,51.8-515.1,53.7-517.8,53.7"/>
				</g>
				<g id="g1194" transform="translate(748.025,224.3608)">
					<path id="path1196" class="st1" d="M-521.2,49.3c0-1.5-1.1-2.7-2.6-2.7c-1.6,0-2.7,1.3-2.7,2.8v0c0,1.5,1.1,2.7,2.6,2.7
						C-522.3,52.1-521.2,50.8-521.2,49.3L-521.2,49.3z M-523.9,53.8c-2.7,0-4.7-2-4.7-4.5v0c0-2.5,1.9-4.5,4.6-4.5s4.7,2,4.7,4.5v0
						C-519.2,51.8-521.2,53.8-523.9,53.8"/>
				</g>
				<g id="g1198" transform="translate(580.5591,223.1053)">
					<path id="path1200" class="st1" d="M-459.5,49.7h4.1v1.7h-4.1v1.8h4.7v1.7h-6.6v-8.8h6.7v1.7h-4.8V49.7z"/>
				</g>
				<g id="g1202" transform="translate(647.1183,224.3747)">
					<path id="path1204" class="st1" d="M-484.1,49.3c0-1.5-1.1-2.6-2.6-2.6h-1.5v5.3h1.5C-485.1,51.9-484.1,50.8-484.1,49.3
						L-484.1,49.3z M-486.7,53.7h-3.4v-8.7h3.4c2.8,0,4.7,1.9,4.7,4.4v0C-482,51.8-483.9,53.7-486.7,53.7"/>
				</g>
				<g id="g1206" transform="translate(663.6488,224.3654)">
					<path id="path1208" class="st1" d="M-490.2,49.3c0-1.5-1.1-2.7-2.6-2.7c-1.6,0-2.7,1.3-2.7,2.8v0c0,1.5,1.1,2.7,2.6,2.7
						C-491.3,52.1-490.2,50.8-490.2,49.3L-490.2,49.3z M-492.8,53.8c-2.7,0-4.7-2-4.7-4.5v0c0-2.5,1.9-4.5,4.6-4.5s4.7,2,4.7,4.5v0
						C-488.1,51.8-490.1,53.8-492.8,53.8"/>
				</g>
			</g>
		</g>
	</g>
</g>
<g>
</g>
<g>
</g>
<g>
</g>
<g>
</g>
<g>
</g>
<g>
</g>
<g>
</g>
<g>
</g>
<g>
</g>
<g>
</g>
<g>
</g>
<g>
</g>
<g>
</g>
<g>
</g>
<g>
</g>
</svg>
