<?xml version="1.0" encoding="utf-8"?>
<!-- Generator: Adobe Illustrator 25.2.0, SVG Export Plug-In . SVG Version: 6.00 Build 0)  -->
<svg version="1.1" id="Layer_1" xmlns="http://www.w3.org/2000/svg" xmlns:xlink="http://www.w3.org/1999/xlink" x="0px" y="0px"
	 viewBox="0 0 64 64" style="enable-background:new 0 0 64 64;" xml:space="preserve">
<style type="text/css">
	.st0{fill:#B01116;}
	.st1{fill:#FFFFFF;}
	.st2{fill:#222222;}
</style>
<g>
	<path class="st0" d="M54,64H10C4.5,64,0,59.5,0,54V10C0,4.5,4.5,0,10,0h44c5.5,0,10,4.5,10,10v44C64,59.5,59.5,64,54,64z"/>
</g>
<g id="Group">
	<g id="_x32_">
		<path class="st1" d="M16.7,52.5l7.8-39h23.8l-1.6,8H32.4l-1.6,8H43l-1.6,8H29.3l-3,14.9H16.7z"/>
	</g>
	<g id="_x31__1_">
		<path class="st2" d="M15.7,50.5l7.8-39h23.8l-1.6,8H31.4l-1.6,8H42l-1.6,8H28.3l-3,14.9H15.7z"/>
	</g>
</g>
<g>
</g>
<g>
</g>
<g>
</g>
<g>
</g>
<g>
</g>
<g>
</g>
<g>
</g>
<g>
</g>
<g>
</g>
<g>
</g>
<g>
</g>
<g>
</g>
<g>
</g>
<g>
</g>
<g>
</g>
</svg>
