<?xml version="1.0" encoding="utf-8"?>
<!-- Generator: Adobe Illustrator 25.2.0, SVG Export Plug-In . SVG Version: 6.00 Build 0)  -->
<svg version="1.1" id="Layer_1" xmlns="http://www.w3.org/2000/svg" xmlns:xlink="http://www.w3.org/1999/xlink" x="0px" y="0px"
	 viewBox="0 0 36 36" style="enable-background:new 0 0 36 36;" xml:space="preserve">
<style type="text/css">
	.st0{fill:#FFFFFF;stroke:#7CA519;stroke-miterlimit:10;}
	.st1{fill:#7CA519;}
</style>
<circle class="st0" cx="18" cy="18" r="17.5"/>
<path class="st1" d="M28,10.1V8.3l-1.7-0.2c-0.1,0-0.7-0.1-1.6-0.1c-3.9,0-6.7,1.2-8.3,3.3c-1.2-0.8-2.9-1.3-4.9-1.3
	c-0.9,0-1.6,0.1-1.6,0.1L8,10.4l0.1,1.7c0.1,3,1.5,8.7,6.4,8.7c0.1,0,0.1,0,0.2,0v3.4C11.1,24.7,8.1,26,8.1,26v2h19v-2
	c0,0-3-1.3-6.6-1.8V21C26.4,20.9,28,13.8,28,10.1 M17.6,24c-0.3,0-0.7,0-0.9,0v-5.6c0,0-0.2-3.4-2.8-3.4c0,0,1.4,0.8,1.8,3.7
	c-0.4,0.1-0.8,0.1-1,0.1c-4.4,0-4.5-6.7-4.5-6.7s0.6-0.1,1.4-0.1c1.8,0,4.7,0.4,5.6,3.1c0.5-4.5,5.3-5.1,7.7-5.1
	c0.9,0,1.4,0.1,1.4,0.1s0,9-6,9c-0.2,0-0.5,0-0.7,0c0-2,1.9-5,1.9-5c-2.8,1-2.8,4.9-2.8,4.9v5C18.2,24,17.9,24,17.6,24z"/>
</svg>
