<?xml version="1.0" encoding="utf-8"?>
<!-- Generator: Adobe Illustrator 25.2.0, SVG Export Plug-In . SVG Version: 6.00 Build 0)  -->
<svg version="1.1" id="Layer_1" xmlns="http://www.w3.org/2000/svg" xmlns:xlink="http://www.w3.org/1999/xlink" x="0px" y="0px"
	 viewBox="0 0 36 36" style="enable-background:new 0 0 36 36;" xml:space="preserve">
<style type="text/css">
	.st0{fill:#FFFFFF;stroke:#0D8DB5;stroke-miterlimit:10;}
	.st1{fill:#0D8DB5;}
</style>
<circle class="st0" cx="18" cy="18" r="17.5"/>
<path class="st1" d="M18,8c-5.5,0-10,2-10,4.4v11.1C8,26,12.5,28,18,28s10-2,10-4.4V12.4C28,10,23.5,8,18,8 M25.5,23.6
	c0,0.6-2.7,2.2-7.5,2.2s-7.5-1.7-7.5-2.2v-2.5c2,0.9,4.7,1.4,7.5,1.4s5.5-0.5,7.5-1.4V23.6 M25.5,18.5c-1.6,1.1-4.5,1.7-7.5,1.7
	s-5.9-0.7-7.5-1.7v-3.1c1.8,0.9,4.5,1.5,7.5,1.5s5.7-0.6,7.5-1.5V18.5 M18,14.7c-4.8,0-7.5-1.7-7.5-2.2s2.7-2.2,7.5-2.2
	s7.5,1.7,7.5,2.2S22.8,14.7,18,14.7z"/>
</svg>
