<?xml version="1.0" encoding="utf-8"?>
<!-- Generator: Adobe Illustrator 25.2.0, SVG Export Plug-In . SVG Version: 6.00 Build 0)  -->
<svg version="1.1" id="Layer_1" xmlns="http://www.w3.org/2000/svg" xmlns:xlink="http://www.w3.org/1999/xlink" x="0px" y="0px"
	 viewBox="0 0 36 36" style="enable-background:new 0 0 36 36;" xml:space="preserve">
<style type="text/css">
	.st0{fill:#FFFFFF;stroke:#E54C38;stroke-miterlimit:10;}
	.st1{fill:#E54C38;}
</style>
<circle class="st0" cx="18" cy="18" r="17.5"/>
<path class="st1" d="M21.7,10c0.8,0,1.6,0.2,2.3,0.7c1.1,0.7,1.8,1.9,2,3.2c0.1,1.3-0.3,2.6-1.2,3.5c-0.7,0.7-1.6,1.1-2.6,1.2
	c-1.9,0.2-3.6,1-4.8,2.2C17.1,21,16.9,21,16.8,21c-0.1,0-0.4,0-0.6-0.2l-1-1C15,19.6,15,19.4,15,19.2s0.1-0.5,0.3-0.7
	c1.2-1.2,2-2.8,2.1-4.7c0.1-1.3,0.8-2.5,2-3.2C20.1,10.2,20.9,10,21.7,10 M21.7,8c-1.2,0-2.3,0.3-3.4,1c-1.8,1.1-2.7,2.9-2.9,4.7
	c-0.1,1.3-0.6,2.5-1.5,3.4l0,0c-1.2,1.2-1.2,2.9-0.1,4l1,1c0.6,0.5,1.3,0.8,2,0.8s1.4-0.3,2-0.8c1-1,2.2-1.5,3.6-1.7
	c1.4-0.1,2.7-0.8,3.8-1.8c2.8-2.8,2.4-7.5-1.1-9.7C24.1,8.3,22.9,8,21.7,8 M12.3,25.9c0.3,0.6,0.2,1.2-0.3,1.7
	c-0.6,0.6-1.5,0.6-2.1,0c-0.3-0.3-0.4-0.6-0.4-1c-0.4,0-0.7-0.2-1-0.4c-0.6-0.6-0.6-1.5,0-2.1c0.5-0.5,1.1-0.6,1.7-0.3l2.5-2.4
	c0.1,0.2,0.3,0.4,0.5,0.6l1,1c0.2,0.2,0.4,0.4,0.7,0.5L12.3,25.9z"/>
</svg>
